# xmcd
#
# Track frame offsets:
#	150
#	11952
#	27592
#	44490
#	59910
#	77390
#	90055
#	104710
#	119157
#	135747
#	150620
#	165865
#	177067
#	193955
#	215965
#	235232
#	252602
#	271190
#
# Disc length: 3886
#
# Revision: 3
# Processed by: cddbd v1.5.1PL0 Copyright (c) Steve Scherf et al.
# Submitted via: DiscPlay 4.0.4
# Normalized: r1:DSETVAR1,TDELIM( - ),TSWAP
#
DISCID=080f2c12
DTITLE=Various Artist - Country For Life - BX93 - Today's Country
DYEAR=1900
DGENRE=
TTITLE0=Kenny Chesney - Fall In Love
TTITLE1=Mindy McCready - Ten Thousand Angels
TTITLE2=Lorrie Morgan - Back In Your Arms Again
TTITLE3=Lonestar - Tequila Talkin'
TTITLE4=Keith Gattis - Little Drops Of My Heart
TTITLE5=Clint Black - Summer's Comin'
TTITLE6=Martina McBride - Safe In The Arms Of Love
TTITLE7=Lari White - Ready, Willing, And Able
TTITLE8=Alabama - It Works
TTITLE9=Aaron Tippin - That's As Close As I'll Get To Loving You
TTITLE10=Pam Tillis - Deep Down
TTITLE11=Alan Jackson - Tall, Tall Trees
TTITLE12=Lee Roy Parnell - When A Woman Loves A Man
TTITLE13=Brooks and Dunn - You're Gonna Miss Me When I'm Gone
TTITLE14=Blackhawk - I'm Not Strong Enough To Say No
TTITLE15=Diamond Rio - Walkin' Away
TTITLE16=Charlie Major - Tell Me Something I Don't Know
TTITLE17=Prarie Oyster - Don't Cry Little Angel
EXTD=
EXTT0=
EXTT1=
EXTT2=
EXTT3=
EXTT4=
EXTT5=
EXTT6=
EXTT7=
EXTT8=
EXTT9=
EXTT10=
EXTT11=
EXTT12=
EXTT13=
EXTT14=
EXTT15=
EXTT16=
EXTT17=
PLAYORDER=
